<mxfile host="app.diagrams.net" modified="2020-09-02T07:57:03.514Z" agent="5.0 (Windows)" etag="R1xfWTI_8iueMmhtvhfp" version="13.6.6" type="github">
  <diagram id="FgS1PKGfFNiu4O3C8QIE" name="Page-1">
    <mxGraphModel dx="1422" dy="768" grid="1" gridSize="10" guides="1" tooltips="1" connect="1" arrows="1" fold="1" page="1" pageScale="1" pageWidth="827" pageHeight="1169" math="0" shadow="0">
      <root>
        <mxCell id="0" />
        <mxCell id="1" parent="0" />
        <mxCell id="0yjArLSf2atDx_hs_2Yu-9" value="output" style="edgeStyle=orthogonalEdgeStyle;rounded=0;sketch=1;orthogonalLoop=1;jettySize=auto;html=1;exitX=1;exitY=0.5;exitDx=0;exitDy=0;entryX=1;entryY=0.5;entryDx=0;entryDy=0;strokeColor=#000080;fontFamily=Helvetica;fontColor=#000080;" edge="1" parent="1" source="0yjArLSf2atDx_hs_2Yu-1" target="0yjArLSf2atDx_hs_2Yu-3">
          <mxGeometry relative="1" as="geometry" />
        </mxCell>
        <mxCell id="0yjArLSf2atDx_hs_2Yu-14" value="&lt;div&gt;requires&lt;/div&gt;" style="edgeStyle=orthogonalEdgeStyle;rounded=0;sketch=1;orthogonalLoop=1;jettySize=auto;html=1;strokeColor=#000080;fontFamily=Helvetica;fontColor=#000080;" edge="1" parent="1" source="0yjArLSf2atDx_hs_2Yu-1" target="0yjArLSf2atDx_hs_2Yu-13">
          <mxGeometry relative="1" as="geometry" />
        </mxCell>
        <mxCell id="0yjArLSf2atDx_hs_2Yu-1" value="&lt;div&gt;summarise&lt;/div&gt;" style="rounded=1;whiteSpace=wrap;html=1;sketch=1;strokeColor=#000080;fontFamily=Helvetica;strokeWidth=3;fontColor=#000080;fontStyle=3" vertex="1" parent="1">
          <mxGeometry x="320" y="340" width="90" height="50" as="geometry" />
        </mxCell>
        <mxCell id="0yjArLSf2atDx_hs_2Yu-6" style="edgeStyle=orthogonalEdgeStyle;rounded=0;sketch=1;orthogonalLoop=1;jettySize=auto;html=1;exitX=1;exitY=0.5;exitDx=0;exitDy=0;entryX=1;entryY=0.5;entryDx=0;entryDy=0;strokeColor=#000080;fontFamily=Helvetica;fontColor=#000080;" edge="1" parent="1" source="0yjArLSf2atDx_hs_2Yu-3" target="0yjArLSf2atDx_hs_2Yu-3">
          <mxGeometry relative="1" as="geometry" />
        </mxCell>
        <mxCell id="0yjArLSf2atDx_hs_2Yu-7" value="input" style="edgeStyle=orthogonalEdgeStyle;rounded=0;sketch=1;orthogonalLoop=1;jettySize=auto;html=1;exitX=0;exitY=0.5;exitDx=0;exitDy=0;entryX=0;entryY=0.75;entryDx=0;entryDy=0;strokeColor=#000080;fontFamily=Helvetica;fontColor=#000080;" edge="1" parent="1" source="0yjArLSf2atDx_hs_2Yu-3" target="0yjArLSf2atDx_hs_2Yu-1">
          <mxGeometry relative="1" as="geometry" />
        </mxCell>
        <mxCell id="0yjArLSf2atDx_hs_2Yu-3" value="&lt;div&gt;dataframe&lt;/div&gt;" style="rounded=1;whiteSpace=wrap;html=1;sketch=1;strokeColor=#000080;fontFamily=Helvetica;strokeWidth=1;fontColor=#000080;fontStyle=0" vertex="1" parent="1">
          <mxGeometry x="320" y="220" width="90" height="50" as="geometry" />
        </mxCell>
        <mxCell id="0yjArLSf2atDx_hs_2Yu-13" value="summary function" style="whiteSpace=wrap;html=1;rounded=1;fontColor=#000080;fontStyle=0;strokeColor=#000080;strokeWidth=1;sketch=1;" vertex="1" parent="1">
          <mxGeometry x="320" y="450" width="90" height="50" as="geometry" />
        </mxCell>
      </root>
    </mxGraphModel>
  </diagram>
</mxfile>
